<svg width="29" height="31" viewBox="0 0 29 31" fill="none" xmlns="http://www.w3.org/2000/svg">
<path fill-rule="evenodd" clip-rule="evenodd" d="M10.4055 8.31173C10.7251 8.27704 11.0495 8.25928 11.3776 8.25928C15.7669 8.25928 19.4667 11.4372 20.6 15.7723C20.6907 15.7662 20.7819 15.7622 20.8736 15.7604C20.8364 15.7597 20.799 15.7594 20.7615 15.7594L20.7313 15.7595L20.7312 15.7593H22.1161H22.1705V15.7588C23.8909 15.7287 25.2767 14.2714 25.2767 12.478C25.2767 10.6658 23.8616 9.19678 22.1161 9.19678C21.53 9.19678 20.9812 9.36239 20.5107 9.651C20.5093 9.12719 20.4326 8.62174 20.2914 8.1457C19.5878 6.0294 17.6522 4.50928 15.3746 4.50928C13.0379 4.50928 11.0611 6.10936 10.4055 8.31173ZM24.5332 16.9835C26.0769 18.1742 27.0827 20.1215 27.0827 22.3218C27.0827 25.9461 24.3534 28.8842 20.9867 28.8842C20.9113 28.8842 20.8363 28.8828 20.7616 28.8799V28.8843H11.5211V28.8831C11.4733 28.8839 11.4255 28.8843 11.3776 28.8843C6.08699 28.8843 1.7981 24.2672 1.7981 18.5718C1.7981 13.9727 4.5947 10.0768 8.45709 8.74731C8.99239 5.28183 11.8857 2.63428 15.3746 2.63428C18.368 2.63428 20.9229 4.58319 21.9264 7.32547C21.9893 7.32302 22.0526 7.32178 22.1161 7.32178C24.8591 7.32178 27.0827 9.63031 27.0827 12.478C27.0827 14.4148 26.0541 16.1022 24.5332 16.9835ZM20.7616 27.0093H11.5211H11.4171V27.0092L11.3776 27.0093C7.14561 27.0093 3.60414 23.2963 3.60414 18.5718C3.60414 13.8472 7.14561 10.1343 11.3776 10.1343C14.9677 10.1343 18.0608 12.8062 18.9166 16.501L18.9193 16.4998C19.0402 17.0125 19.1172 17.544 19.1459 18.0894C19.7086 17.7966 20.3346 17.6343 20.9867 17.6343C23.2948 17.6343 25.2767 19.6683 25.2767 22.3218C25.2767 24.9567 23.3225 26.9807 21.0351 27.0089V27.0093H20.7616Z" fill="white"/>
</svg>
